<svg width="60" height="62" fill="none" xmlns="http://www.w3.org/2000/svg"><path d="M9.356 22.547a10.925 10.925 0 0 1 3.549-11.463c.003-.002.005-.006.009-.008l.044-.036c3.484-2.875 8.218-3.287 12.046-1.433a11.183 11.183 0 0 1 11.281-4.382c4.445.893 7.733 4.295 8.648 8.409 4.252-.222 8.446 1.99 10.508 5.98 2.067 3.995 1.426 8.652-1.255 11.93 2.83 3.146 3.69 7.764 1.823 11.847-1.507 3.29-4.448 5.492-7.76 6.21l3.281 6.984-6.514-4.19a11.075 11.075 0 0 1-7.474 6.267 11.203 11.203 0 0 1-11.476-3.86c-3.736 2.03-8.494 1.832-12.107-.88a11.044 11.044 0 0 1-1.8-1.696 10.931 10.931 0 0 1-2.301-9.58c-3.937-1.62-6.744-5.414-6.855-9.898-.108-4.48 2.507-8.398 6.355-10.203l-.002.002Z" fill="#000"/><path fill-rule="evenodd" clip-rule="evenodd" d="M6.009 21.027C2.289 23.62-.114 27.95.004 32.822c.12 4.878 2.738 9.094 6.586 11.505a13.928 13.928 0 0 0 3.28 9.84 14.05 14.05 0 0 0 2.286 2.154l.003.002c3.912 2.936 8.873 3.544 13.181 2.064a14.212 14.212 0 0 0 12.928 3.187 14.084 14.084 0 0 0 7.71-4.993l3.93 2.528a3 3 0 0 0 4.337-3.8l-1.887-4.016a14 14 0 0 0 6.378-6.652v-.002c2.026-4.429 1.532-9.348-.872-13.18 2.223-3.945 2.484-8.887.241-13.223-2.241-4.336-6.443-7.002-10.958-7.523a14.08 14.08 0 0 0-10.27-8.428A14.19 14.19 0 0 0 24.113 6.06c-4.356-1.276-9.26-.453-13.03 2.639l-.068.055-.015.012-.012.01-.002.002a13.926 13.926 0 0 0-4.976 12.25Zm2.918-1.451c.005.993.146 1.988.425 2.956l.003.01.001.005c-.002 0-.004 0-.005.002-.915.43-1.76.979-2.515 1.626-2.418 2.075-3.915 5.16-3.833 8.573.11 4.484 2.918 8.278 6.855 9.898a10.931 10.931 0 0 0 2.3 9.58c.524.62 1.125 1.188 1.801 1.696 3.613 2.712 8.37 2.91 12.107.88a11.203 11.203 0 0 0 11.476 3.86 11.091 11.091 0 0 0 7.474-6.267l6.514 4.19-3.282-6.983c.987-.214 1.94-.56 2.833-1.027a11.006 11.006 0 0 0 4.928-5.184c1.867-4.083 1.007-8.701-1.823-11.847 2.68-3.278 3.322-7.935 1.255-11.93-2.062-3.99-6.256-6.202-10.508-5.98-.915-4.114-4.203-7.516-8.648-8.41a11.183 11.183 0 0 0-11.281 4.383c-3.828-1.854-8.562-1.442-12.046 1.433l-.044.036-.005.004a10.93 10.93 0 0 0-3.982 8.496ZM10.8 8.946Zm0 0 .003-.002-.003.002Z" fill="#000"/><path d="M9.356 20.547a10.926 10.926 0 0 1 3.549-11.463c.003-.002.005-.006.009-.008a.779.779 0 0 1 .044-.036c3.484-2.875 8.218-3.287 12.046-1.433a11.183 11.183 0 0 1 11.281-4.382c4.445.893 7.733 4.295 8.648 8.409 4.252-.222 8.446 1.99 10.508 5.98 2.067 3.995 1.426 8.652-1.255 11.93 2.83 3.146 3.69 7.764 1.822 11.847-1.506 3.29-4.447 5.492-7.76 6.21l3.282 6.984-6.514-4.19a11.075 11.075 0 0 1-7.474 6.267 11.203 11.203 0 0 1-11.476-3.86c-3.736 2.03-8.494 1.832-12.107-.88a11.053 11.053 0 0 1-1.8-1.696 10.931 10.931 0 0 1-2.301-9.58c-3.937-1.62-6.744-5.414-6.855-9.898-.108-4.48 2.507-8.398 6.355-10.203l-.002.002Z" fill="#fff"/><path fill-rule="evenodd" clip-rule="evenodd" d="M6.009 19.027C2.289 21.62-.114 25.95.004 30.822c.12 4.878 2.738 9.094 6.586 11.505a13.928 13.928 0 0 0 3.28 9.84 14.05 14.05 0 0 0 2.286 2.154l.003.002c3.912 2.936 8.873 3.544 13.181 2.064a14.212 14.212 0 0 0 12.928 3.187 14.084 14.084 0 0 0 7.71-4.993l3.93 2.528a3 3 0 0 0 4.337-3.8l-1.887-4.016a14 14 0 0 0 6.378-6.652v-.002c2.026-4.429 1.532-9.348-.872-13.18 2.223-3.945 2.484-8.887.241-13.223-2.241-4.336-6.443-7.002-10.958-7.523A14.08 14.08 0 0 0 36.877.284 14.19 14.19 0 0 0 24.113 4.06c-4.356-1.276-9.26-.453-13.03 2.639l-.068.055-.015.012-.012.01-.002.002a13.926 13.926 0 0 0-4.976 12.25Zm2.918-1.451c.005.993.146 1.988.425 2.956l.003.01v.004l-.004.003c-.915.43-1.76.979-2.515 1.626-2.418 2.075-3.915 5.16-3.833 8.573.11 4.484 2.918 8.278 6.855 9.898a10.931 10.931 0 0 0 2.3 9.58c.524.62 1.125 1.188 1.801 1.696 3.613 2.712 8.37 2.91 12.107.88a11.203 11.203 0 0 0 11.476 3.86 11.091 11.091 0 0 0 7.474-6.267l6.514 4.19-3.282-6.983c.987-.214 1.94-.56 2.833-1.027a11.006 11.006 0 0 0 4.928-5.184c1.867-4.083 1.007-8.701-1.823-11.847 2.68-3.278 3.322-7.935 1.255-11.93-2.062-3.99-6.256-6.202-10.508-5.98-.915-4.114-4.203-7.516-8.648-8.41a11.183 11.183 0 0 0-11.281 4.383c-3.828-1.854-8.562-1.442-12.046 1.433a.77.77 0 0 0-.044.036l-.005.004a10.93 10.93 0 0 0-3.982 8.496ZM10.8 6.946Zm0 0 .003-.002-.003.002Z" fill="#000"/><path d="M40.882 24.198h-3.367l1.102-4.598a1.5 1.5 0 1 0-2.917-.698l-1.268 5.303H29.01l1.102-4.597a1.5 1.5 0 1 0-2.918-.698l-1.267 5.302H21.24c-.825 0-1.5.675-1.5 1.5 0 .826.675 1.5 1.5 1.5h3.967l-1.725 7.208h-4.365c-.825 0-1.5.675-1.5 1.5s.675 1.5 1.5 1.5h3.653l-1.193 4.995c-.195.803.3 1.613 1.11 1.807.12.03.233.038.353.038.675 0 1.29-.465 1.455-1.148l1.365-5.692h5.422l-1.192 4.995c-.195.803.3 1.613 1.11 1.807.12.03.232.038.352.038.675 0 1.29-.465 1.455-1.148l1.365-5.692h4.403c.825 0 1.5-.675 1.5-1.5s-.675-1.5-1.5-1.5h-3.683l1.725-7.208h4.08c.825 0 1.5-.674 1.5-1.5 0-.825-.675-1.5-1.5-1.5l-.015-.014Zm-8.895 10.207h-5.422l1.725-7.207h5.422l-1.725 7.207Z" fill="#000"/></svg>
